# xmcd CD database file generated by Grip 2.91
# 
# Track frame offsets:
#       150
#       19797
#       54347
#       89479
#       115902
#       142484
#       162815
#       195941
#       228495
#       259125
#       279473
#       311077
# 
# Disc length: 4350 seconds
# 
# Revision: 3
# Processed by: cddbd v1.4b41PL1 Copyright (c) Steve Scherf et al.
# Submitted via: Grip 2.91
# 
DISCID=a710fc0c
DTITLE=Various Artist - The Blues You Would Just Hate To Lose (vol 1)
DYEAR=1900
DGENRE=
TTITLE0=Heads Up - Fats Blues Band
TTITLE1=Little Red Rooster - Big Jesse Yawn and His Blues Men
TTITLE2=Grease Monkey - Big Joe and The Dynaflows
TTITLE3=The Lover and the Married Woman - Nap Turner with The Alex Jenkins Trio
TTITLE4=Goin' Back South - Robert Lighthouse
TTITLE5=Don't Put No Headstone On My Grave - New Legacy Jazz Band
TTITLE6=Back Door Man - East West Blues Allstars
TTITLE7=Frosty - Baby Jake and the Terrible Two with Alex Shultz
TTITLE8=Parker's Mood - Dohn Nunley Quartet
TTITLE9=Under the Table - Baby Jake and the Rattles
TTITLE10=When I Fall in Love - Mary Ann Redmond and Joe Stanley
TTITLE11=Kitchen Sink Boogie - Baby Jake and the Terrible Two
EXTD=
EXTT0=
EXTT1=
EXTT2=
EXTT3=
EXTT4=
EXTT5=
EXTT6=
EXTT7=
EXTT8=
EXTT9=
EXTT10=
EXTT11=
PLAYORDER=
